<svg xmlns="http://www.w3.org/2000/svg" width="668.502" height="664.122" viewBox="0 0 668.502 664.122"><defs><style>      .cls-1, .cls-12, .cls-14, .cls-19, .cls-2, .cls-25, .cls-3, .cls-46, .cls-47, .cls-5, .cls-52, .cls-75 {        fill: #4ca4cb;      }      .cls-1 {        opacity: 0.706;      }      .cls-2 {        opacity: 0.714;      }      .cls-3, .cls-9 {        opacity: 0.918;      }      .cls-4 {        fill: #3fa793;        opacity: 0.741;      }      .cls-5, .cls-86 {        opacity: 0.925;      }      .cls-6 {        fill: #211184;        opacity: 0.847;      }      .cls-7 {        fill: #4189be;      }      .cls-21, .cls-49, .cls-7, .cls-83 {        opacity: 0.961;      }      .cls-11, .cls-15, .cls-33, .cls-34, .cls-35, .cls-49, .cls-8 {        fill: #191384;      }      .cls-17, .cls-8 {        opacity: 0.718;      }      .cls-9 {        fill: #264fa1;      }      .cls-10 {        fill: #366fb1;        opacity: 0.682;      }      .cls-11, .cls-57, .cls-71 {        opacity: 0.953;      }      .cls-12, .cls-33, .cls-58, .cls-87 {        opacity: 0.988;      }      .cls-13 {        fill: #1c3a97;      }      .cls-13, .cls-37 {        opacity: 0.973;      }      .cls-14, .cls-16, .cls-23, .cls-27 {        opacity: 0.992;      }      .cls-15, .cls-18, .cls-32, .cls-51, .cls-52, .cls-56, .cls-77 {        opacity: 0.976;      }      .cls-16 {        fill: #21449c;      }      .cls-17 {        fill: #193494;      }      .cls-18, .cls-31 {        fill: #1a3795;      }      .cls-19, .cls-43 {        opacity: 0.627;      }      .cls-20, .cls-76 {        fill: #35a356;      }      .cls-20 {        opacity: 0.855;      }      .cls-21 {        fill: #3ea686;      }      .cls-22, .cls-23, .cls-45, .cls-50, .cls-53, .cls-55, .cls-57, .cls-59, .cls-60, .cls-61, .cls-72 {        fill: #35a242;      }      .cls-22, .cls-79, .cls-88 {        opacity: 0.957;      }      .cls-24 {        fill: #4696c4;        opacity: 0.765;      }      .cls-25, .cls-55 {        opacity: 0.914;      }      .cls-26, .cls-27 {        fill: #21459c;      }      .cls-26 {        opacity: 0.663;      }      .cls-28 {        fill: #346caf;      }      .cls-28, .cls-50 {        opacity: 0.922;      }      .cls-29, .cls-36 {        fill: #1a1d89;      }      .cls-29 {        opacity: 0.694;      }      .cls-30 {        fill: #2751a2;        opacity: 0.929;      }      .cls-31 {        opacity: 0.898;      }      .cls-32 {        fill: #2d5ca8;      }      .cls-35, .cls-39, .cls-42, .cls-61, .cls-75 {        opacity: 0.996;      }      .cls-37 {        fill: #881385;      }      .cls-38 {        fill: #193595;        opacity: 0.808;      }      .cls-39 {        fill: #1e3d98;      }      .cls-40 {        fill: #23499e;      }      .cls-40, .cls-76 {        opacity: 0.933;      }      .cls-41 {        fill: #2852a3;      }      .cls-42 {        fill: #2f1284;      }      .cls-43 {        fill: #a91385;      }      .cls-44 {        fill: #5f1284;      }      .cls-44, .cls-69 {        opacity: 0.941;      }      .cls-45 {        opacity: 0.729;      }      .cls-46, .cls-65 {        opacity: 0.949;      }      .cls-48 {        fill: #5a1284;        opacity: 0.8;      }      .cls-51 {        fill: #3aa472;      }      .cls-53 {        opacity: 0.671;      }      .cls-54 {        fill: #3fa88e;        opacity: 0.906;      }      .cls-56 {        fill: #45a8bb;      }      .cls-58 {        fill: #35a244;      }      .cls-59 {        opacity: 0.945;      }      .cls-60, .cls-84 {        opacity: 0.984;      }      .cls-62 {        fill: #fc2d26;        opacity: 0.651;      }      .cls-63 {        fill: #b6de2a;      }      .cls-63, .cls-68, .cls-81 {        opacity: 0.886;      }      .cls-64 {        fill: #38a362;      }      .cls-64, .cls-70 {        opacity: 0.867;      }      .cls-65 {        fill: #49a5cc;      }      .cls-66, .cls-69, .cls-70, .cls-79, .cls-83, .cls-85, .cls-87 {        fill: #eff825;      }      .cls-66 {        opacity: 0.827;      }      .cls-67 {        fill: #f7134a;      }      .cls-67, .cls-80 {        opacity: 0.659;      }      .cls-68 {        fill: #eaf62e;      }      .cls-71 {        fill: #ffb814;      }      .cls-72 {        opacity: 0.98;      }      .cls-73 {        fill: #fc131b;        opacity: 0.863;      }      .cls-74 {        fill: #4eae3d;        opacity: 0.82;      }      .cls-77 {        fill: #feaf21;      }      .cls-78 {        fill: #fe5b13;        opacity: 0.675;      }      .cls-80 {        fill: #fe8a13;      }      .cls-81 {        fill: #c9e624;      }      .cls-82 {        fill: #fe3a12;        opacity: 0.882;      }      .cls-84 {        fill: #67ba39;      }      .cls-85 {        opacity: 0.965;      }      .cls-86 {        fill: #f8eb18;      }      .cls-88 {        fill: #66bd6b;      }    </style></defs><g id="Groupe_327" data-name="Groupe 327" transform="matrix(0.998, -0.07, 0.07, 0.998, -24.355, 33.753)"><path id="Trac&#xE9;_1" data-name="Trac&#xE9; 1" class="cls-1" d="M565.416,155.53c18.514,35.2,67.69,128.705,17.364,282.057h0c-12.158,31.457-37.453,96.907-100.829,158.7-24.446,22.252-27,24.578-46.692,38.8.046.028.094.048.138.072,1,.493,1.977.971,2.952,1.431,37.014-27.944,55.673-44.817,86.69-83.868q7.548,3.633,13.993,6.388c22.476-31.437,53.26-74.5,72.645-152.6q-1.571-.989-3.244-2c7.648-37.925,25.562-126.736-18.421-218.994q1.735,1.574,3.35,3.2L583.4,169.976a93.383,93.383,0,0,0-17.984-14.446" transform="translate(34.194 -60.803)"></path><path id="Trac&#xE9;_2" data-name="Trac&#xE9; 2" class="cls-2" d="M585.355,334.4c-22.451,58.931-43.494,99.133-96.21,155.3q1.163.638,2.315,1.263c-28.017,26.376-47.982,44.01-88.9,66.435q5.463,3.235,10.824,5.945c27.411-15.71,51.083-29.274,86.088-62.927C522.6,476.4,570.705,426.41,600.3,341.717c-1.4-.7-2.829-1.426-4.3-2.152q-5.115-2.537-10.652-5.164" transform="translate(16.67 35.066)"></path><path id="Trac&#xE9;_3" data-name="Trac&#xE9; 3" class="cls-3" d="M566.486,339.164c-14.008,36.244-37.45,96.906-100.827,158.7,24.884-25.855,71.206-73.987,100.829-158.7h0" transform="translate(50.487 37.619)"></path><path id="Trac&#xE9;_4" data-name="Trac&#xE9; 4" class="cls-4" d="M561.684,203.609c7.88,44.608,9.668,69.725,3.994,121.87q-6.014-2.493-12.445-4.94l-3.608,22.27q-8-3.189-16.6-6.35c-6.613,29.958-10.978,49.747-26.318,86.289q5.143,2.433,10.094,4.783c-5.431,11.347-12.794,26.429-18.8,37.481q8.617,4.474,16.644,8.573c-23.311,37.424-30.584,47.667-61.629,81.065q4.622,2.7,9.091,5.153c41.295-44.459,68.858-82.375,96.207-155.307l0,0c8.128-26.64,15.148-49.643,19.468-86.973h0c2.764-38.422,3.8-64.975-5.121-109.625q-5.289-2.269-10.977-4.294" transform="translate(43.71 -35.035)"></path><path id="Trac&#xE9;_5" data-name="Trac&#xE9; 5" class="cls-5" d="M555.14,334.4C532.207,394.6,511.958,433.2,458.933,489.7h0c48.8-52.535,71.28-88.819,96.21-155.3l0,0" transform="translate(46.882 35.064)"></path><path id="Trac&#xE9;_6" data-name="Trac&#xE9; 6" class="cls-6" d="M431.8,112.913c8.026,8.6,18.344,20.454,25.645,29.687q12.776-.82,24.824-.4c18.883,28.97,54.031,82.89,52.713,183.519q-7.685-2.1-15.74-4.064c-1.722,32.234-1.825,34.165-5.072,53.865q15.837,5.163,30.226,10.449l3.406-21.987q-4.488-1.539-9.136-3.056c3.353-39.215,9.594-112.211-35.239-195.033a202.652,202.652,0,0,1,27.362,4.408c-11.061-18.266-21.5-35.519-41.378-56.088-17.619-3.537-37.017-3.884-57.61-1.3" transform="translate(32.34 -84.548)"></path><path id="Trac&#xE9;_7" data-name="Trac&#xE9; 7" class="cls-7" d="M508.512,275.787l-3.405,21.987q8.591,3.161,16.6,6.35l3.608-22.27q-8.086-3.076-16.8-6.067" transform="translate(71.63 3.651)"></path><path id="Trac&#xE9;_8" data-name="Trac&#xE9; 8" class="cls-8" d="M538.194,177.139c12.314,28.615,45.029,104.627,18.315,217.788a106.588,106.588,0,0,1,14.184,10.406C577.977,369.027,595.041,284,552.5,196.99a76.6,76.6,0,0,0-14.3-19.851" transform="translate(89.364 -49.222)"></path><path id="Trac&#xE9;_9" data-name="Trac&#xE9; 9" class="cls-9" d="M536.013,175.054c13.537,31.523,45.23,105.337,18.421,218.994q1.677,1.007,3.244,2c7.624-37.745,25.48-126.137-18.315-217.789q-1.614-1.629-3.35-3.2" transform="translate(88.195 -50.339)"></path><path id="Trac&#xE9;_10" data-name="Trac&#xE9; 10" class="cls-10" d="M496.247,149.69C510.214,177.8,516,189.432,525.521,228.333q6.718,1.94,12.991,4.175c-2.22-8.649-5.029-20.229-7.66-28.763q-5.264-1.815-10.852-3.381c-10.681-29.147-11.319-30.893-21.511-50.133-.745-.186-1.49-.367-2.242-.542" transform="translate(66.882 -63.934)"></path><path id="Trac&#xE9;_11" data-name="Trac&#xE9; 11" class="cls-3" d="M515.306,200.891c8.3,45.8,10.016,68.48,4.54,121.105q6.431,2.445,12.445,4.94c4.767-46.921,5.662-69.584-3.994-121.87q-6.263-2.233-12.991-4.175" transform="translate(77.097 -36.491)"></path><path id="Trac&#xE9;_12" data-name="Trac&#xE9; 12" class="cls-11" d="M478.434,146.82c16.2,31.8,46.373,91,35.239,195.033q4.65,1.516,9.136,3.056c4.126-46.025,4.736-68.249-5.331-119.466q9.126,1.984,17.591,4.428c-8-30.635-11.65-44.618-29.274-78.643a202.669,202.669,0,0,0-27.361-4.408" transform="translate(57.333 -65.472)"></path><path id="Trac&#xE9;_13" data-name="Trac&#xE9; 13" class="cls-12" d="M503.853,198.008c8.517,45.159,10.362,67.529,5.331,119.466q8.7,2.991,16.8,6.067c4.514-46.635,5.294-69.159-4.54-121.105q-8.455-2.444-17.592-4.428" transform="translate(70.958 -38.037)"></path><path id="Trac&#xE9;_14" data-name="Trac&#xE9; 14" class="cls-13" d="M489.861,123.009C509.9,147.62,537.349,181.33,552.913,251.1l0,0c6.262,36.118,9.727,61.519,5.121,109.624q4.965,2.233,9.565,4.513,2.049,1.014,4,2.031c5.093-67.225,2.064-154.886-67.168-236.739q-4.138-2.56-8.643-4.792-2.91-1.447-5.932-2.731" transform="translate(63.459 -78.234)"></path><path id="Trac&#xE9;_15" data-name="Trac&#xE9; 15" class="cls-14" d="M530.911,206.405c5.4,31.15,10.062,58.052,5.121,109.625h0c2.482-34.5,4.439-61.755-5.12-109.624l0,0" transform="translate(85.461 -33.536)"></path><path id="Trac&#xE9;_16" data-name="Trac&#xE9; 16" class="cls-15" d="M461.64,104.852c18.705,17.882,36.369,34.774,55.4,69.412q5.617,1.405,10.935,3.143c12.661,25.715,14.291,29.021,21.428,50.371q4.472,1.544,8.71,3.267C546.638,199.2,530.932,155.6,481.487,110.838a119.366,119.366,0,0,0-19.847-5.986" transform="translate(48.333 -87.966)"></path><path id="Trac&#xE9;_17" data-name="Trac&#xE9; 17" class="cls-16" d="M497.707,150.043c13.523,27.256,14.334,28.885,21.511,50.133q5.583,1.564,10.852,3.381c-10.624-29.286-11.263-31.04-21.428-50.371q-5.321-1.742-10.935-3.143" transform="translate(67.664 -63.745)"></path><path id="Trac&#xE9;_18" data-name="Trac&#xE9; 18" class="cls-17" d="M627.641,370.575c-13.174,25.852-22.69,44.528-45.415,74.762.464.192.926.379,1.382.563C539.54,499.7,474.442,564.19,361.276,585.582q3.272.912,6.5,1.568c119.267-24.652,206.41-94.356,266.414-213.1q-3.027-1.626-6.55-3.471" transform="translate(-5.459 54.454)"></path><path id="Trac&#xE9;_19" data-name="Trac&#xE9; 19" class="cls-18" d="M503.075,307.037c-11.979,35.088-20.086,55.456-42.61,90.519q-4.946-3.3-9.953-6.694c-16.841,24.194-61.58,88.466-143.945,118.887l1.044,1.581c21.962-8.987,42.7-17.477,72.259-40.122q6.257,6.686,12.5,13.043c28.1-22.553,86.579-69.48,120.738-173.169q-4.981-2.016-10.034-4.046" transform="translate(-34.781 20.4)"></path><path id="Trac&#xE9;_20" data-name="Trac&#xE9; 20" class="cls-19" d="M496.514,322.673c-14.939,35.854-39.943,95.866-114.061,153.514q2.831,2.882,5.666,5.693c-20.525,14.017-34.08,23.279-62.459,35.25q2.32,2.943,4.65,5.812c8.768-3.917,20.445-9.173,28.978-13.577q6.375,7.057,12.775,13.6c23.141-13.2,29.363-16.75,55.381-36.849q-3.836-3.246-7.7-6.62c42.719-38.172,74.989-75.654,103.855-144.455q-13.2-6.062-27.081-12.366" transform="translate(-24.548 28.78)"></path><path id="Trac&#xE9;_21" data-name="Trac&#xE9; 21" class="cls-20" d="M545.274,342.781c-43.624,93.676-106.051,159.1-185.538,194.461q3.023,2.773,6.044,5.407c30.916-14.938,62.89-30.383,111.184-78.81.716.47,1.425.94,2.139,1.4,23.384-26.031,49.888-55.532,77.6-117.086q-5.605-2.645-11.431-5.376" transform="translate(-6.284 39.557)"></path><path id="Trac&#xE9;_22" data-name="Trac&#xE9; 22" class="cls-21" d="M515.051,346.281c-15.971,33.78-32.484,68.712-77.6,117.084q1.032.677,2.065,1.346c28.4-31.534,36-41.106,59.41-80.024q3.76,1.961,7.414,3.86c5.851-11.139,13.535-26.056,18.806-37.483q-4.948-2.352-10.1-4.781" transform="translate(35.368 41.433)"></path><path id="Trac&#xE9;_23" data-name="Trac&#xE9; 23" class="cls-22" d="M503.3,373.8c-21.544,35.177-28.483,45.806-60.167,80.421q7.773,4.893,15.181,9.218c29.4-31.9,37.277-41.59,61.629-81.066q-8.017-4.095-16.644-8.572" transform="translate(38.412 56.181)"></path><path id="Trac&#xE9;_24" data-name="Trac&#xE9; 24" class="cls-23" d="M498.2,371.285c-21.247,34.989-28.1,45.562-59.41,80.024q3.357,2.177,6.659,4.255c28.736-31.677,36.438-41.291,60.167-80.421q-3.657-1.9-7.416-3.858" transform="translate(36.089 54.835)"></path><path id="Trac&#xE9;_25" data-name="Trac&#xE9; 25" class="cls-24" d="M530.4,299.631,524.954,319.9q-6.578-2.622-13.388-5.277l-5.2,16.519q-5.293-2.228-10.707-4.477l-7.586,20.726q5.278,2.426,10.433,4.8c-24.574,55.121-50.977,98.821-106.584,146.274q9.769,8.264,19.3,15.661C481.3,454.118,518.462,395.373,543.772,304.6q-6.555-2.481-13.37-4.972" transform="translate(10.969 16.431)"></path><path id="Trac&#xE9;_26" data-name="Trac&#xE9; 26" class="cls-25" d="M490.766,330.724c-19.512,44.526-43.6,92.355-103.855,144.455q3.87,3.373,7.7,6.62c35.817-31.6,73.552-68.913,106.584-146.273q-5.154-2.378-10.434-4.8" transform="translate(8.28 33.095)"></path><path id="Trac&#xE9;_27" data-name="Trac&#xE9; 27" class="cls-26" d="M444.318,222.7c2.043,27.389,3.809,51.045-4.015,93.531q5.287,1.65,10.493,3.312c-2.589,11.076-6.188,25.823-9.366,36.747q14.505,5.875,28.3,11.61l5-16.252q-7.059-2.705-14.331-5.433c7.107-29.9,15.953-67.111,11.2-120.458q-13.337-1.739-27.291-3.057" transform="translate(36.897 -24.804)"></path><path id="Trac&#xE9;_28" data-name="Trac&#xE9; 28" class="cls-27" d="M443.411,283.591c-2.461,10.855-5.878,25.3-8.907,36.012q5.053,2.029,10.034,4.046c3.031-10.967,6.928-25.637,9.367-36.746q-5.2-1.661-10.494-3.311" transform="translate(33.789 7.833)"></path><path id="Trac&#xE9;_29" data-name="Trac&#xE9; 29" class="cls-28" d="M464.466,306.649l-5,16.252q5.417,2.253,10.707,4.477l5.2-16.519q-5.384-2.094-10.9-4.21" transform="translate(47.168 20.192)"></path><path id="Trac&#xE9;_30" data-name="Trac&#xE9; 30" class="cls-29" d="M482.624,246.048c-1.33,29.107-2.063,45.141-9.424,77.4q6.936,2.453,13.642,4.9l5.141-25.085q-6.838-2.226-13.925-4.427c4.128-32.584,4.29-33.856,4.57-52.79h0" transform="translate(54.528 -12.289)"></path><path id="Trac&#xE9;_31" data-name="Trac&#xE9; 31" class="cls-11" d="M480.931,246.048c-1.47,32.2-1.528,33.458-4.569,52.79q7.084,2.2,13.925,4.427c4.55-33.885,4.636-34.533,5.072-53.865q-7.08-1.723-14.427-3.352" transform="translate(56.224 -12.289)"></path><path id="Trac&#xE9;_32" data-name="Trac&#xE9; 32" class="cls-30" d="M475.011,296.438l-5.192,19.894q6.806,2.654,13.388,5.278l5.446-20.267q-6.7-2.451-13.643-4.9" transform="translate(52.717 14.719)"></path><path id="Trac&#xE9;_33" data-name="Trac&#xE9; 33" class="cls-31" d="M464.595,224.687c1.64,29.063,3.686,65.233-11.2,120.458q7.265,2.728,14.331,5.433l4.977-19.567q5.626,1.942,11.117,3.883c5.981-30.458,8.984-45.747,9.425-77.4q-11.843-2.62-24.329-4.967c-.328-8.236-.608-19.229-1.3-27.442q-1.5-.205-3.021-.4" transform="translate(43.912 -23.738)"></path><path id="Trac&#xE9;_34" data-name="Trac&#xE9; 34" class="cls-32" d="M467.7,293.91l-4.977,19.567q5.519,2.116,10.9,4.21l5.191-19.894q-5.49-1.94-11.117-3.883" transform="translate(48.913 13.364)"></path><path id="Trac&#xE9;_35" data-name="Trac&#xE9; 35" class="cls-33" d="M428.661,134.592c16.811,24.184,44.95,64.655,52.209,139.76q12.653,1.7,24.683,3.8c-1.508-13.282-4.081-30.935-6.532-44.073q-6.056-.61-12.266-1.078c-6.874-25.42-16.289-60.235-45.609-100.222q-6.178.776-12.485,1.819" transform="translate(30.657 -73.001)"></path><path id="Trac&#xE9;_36" data-name="Trac&#xE9; 36" class="cls-34" d="M448.5,131.842c14.254,21.31,33.776,50.5,45.9,103.664q-2.977-.341-6-.644c2.416,13.146,5.058,30.787,6.532,44.073q7.451,1.295,14.63,2.732c.286,8.769.832,20.462.742,29.233q8.052,1.968,15.741,4.064c-.4-38.1-1.143-109.025-52.713-183.52-8.018-.287-16.307-.151-24.824.4" transform="translate(41.289 -73.79)"></path><g id="Groupe_1" data-name="Groupe 1" transform="translate(511.528 201.351)"><path id="Trac&#xE9;_37" data-name="Trac&#xE9; 37" class="cls-35" d="M462.652,224.948q12.654,1.705,24.677,3.794-12.013-2.085-24.677-3.794" transform="translate(-462.652 -224.948)"></path><path id="Trac&#xE9;_38" data-name="Trac&#xE9; 38" class="cls-35" d="M478.718,227.418c.347,8.581.971,20.026.948,28.615h0c-.22-8.585-.349-20.045-.945-28.614l-.006,0" transform="translate(-454.041 -223.624)"></path></g><path id="Trac&#xE9;_39" data-name="Trac&#xE9; 39" class="cls-34" d="M478.722,227.419c.349,8.581.97,20.024.945,28.614q7.346,1.627,14.428,3.351c-.16-8.769-.2-20.474-.742-29.232q-7.174-1.438-14.631-2.732" transform="translate(57.488 -22.273)"></path><path id="Trac&#xE9;_40" data-name="Trac&#xE9; 40" class="cls-36" d="M462.652,224.948c.449,8.228,1.2,19.2,1.3,27.442q12.469,2.348,24.328,4.968c-.223-8.584-.353-20.048-.948-28.615q-12.013-2.085-24.677-3.794" transform="translate(48.876 -23.597)"></path><path id="Trac&#xE9;_41" data-name="Trac&#xE9; 41" class="cls-37" d="M381.068,115.607c27.195,21.536,58.052,49.664,80.1,111.154.688-.032,1.376-.066,2.065-.1,2.6,8.717,6.008,20.361,8.108,29.208q11.913.323,23.417,1.041c-14.083-58.547-34.146-104.045-90.582-149.889q-11.428,3.714-23.111,8.582" transform="translate(5.149 -86.801)"></path><path id="Trac&#xE9;_42" data-name="Trac&#xE9; 42" class="cls-38" d="M445.927,185.13c6.635,21.954,8.635,28.58,12.935,57.61-11.282-1-22.825-1.8-34.565-2.4,5.121,48.686,3.5,91.377-20.39,153.676l20.239,10.225c9.176-23.682,15.235-39.326,21.591-72.129q6.248,1.9,12.394,3.808c4.371-28.313,8.147-52.761,3.884-93.18.605.055,1.209.114,1.811.171-1.289-8.669-2.984-20.233-4.723-28.821-.685-.02-1.372-.035-2.058-.054-2.272-8.763-5.348-20.441-8.115-29.059-1,.049-2,.1-3,.15" transform="translate(17.389 -45.02)"></path><path id="Trac&#xE9;_43" data-name="Trac&#xE9; 43" class="cls-39" d="M447.679,280.772c-5.379,24.913-8.932,41.373-21.591,72.129.507.252,1.007.507,1.51.762-11.2,24.027-13.532,29.03-27.314,51.277q5.006,3.386,9.953,6.694c15.857-25.738,28.382-46.07,42.609-90.519-.534-.213-1.069-.43-1.605-.643,2.865-10.712,6.545-25.041,8.832-35.891q-6.143-1.909-12.394-3.808" transform="translate(15.447 6.322)"></path><path id="Trac&#xE9;_44" data-name="Trac&#xE9; 44" class="cls-40" d="M443.094,222.586c2.074,27.285,3.863,50.847-3.885,93.18q.841.263,1.68.522c4.421-28.414,8.241-52.953,4.015-93.531-.6-.057-1.205-.115-1.811-.17" transform="translate(36.311 -24.864)"></path><path id="Trac&#xE9;_45" data-name="Trac&#xE9; 45" class="cls-41" d="M442.291,283.251c-2.436,10.816-5.82,25.219-8.832,35.891.536.213,1.07.43,1.6.644,2.888-10.749,6.594-25.125,8.907-36.013l-1.68-.522" transform="translate(33.229 7.651)"></path><path id="Trac&#xE9;_46" data-name="Trac&#xE9; 46" class="cls-42" d="M433.219,185.012c2.6,8.671,6.01,20.256,8.114,29.059.687.018,1.374.034,2.058.054-2.268-8.807-5.342-20.544-8.108-29.208-.688.029-1.376.063-2.064.1" transform="translate(33.1 -45.053)"></path><path id="Trac&#xE9;_47" data-name="Trac&#xE9; 47" class="cls-43" d="M397.927,97.858c19.4,13.652,37.719,26.549,59.691,55.773q6.1-.77,12.062-1.278c-7.312-9.085-17.476-20.879-25.5-29.334q2.9-.433,5.777-.8c-20.044-17.975-21.247-19.049-35.308-28.365q-8.266,1.61-16.722,4" transform="translate(14.185 -93.858)"></path><path id="Trac&#xE9;_48" data-name="Trac&#xE9; 48" class="cls-44" d="M428.041,113.121c7.982,8.5,18.237,20.213,25.5,29.334q2.976-.251,5.921-.442c-7.35-9.193-17.571-21.127-25.644-29.687-1.919.238-3.843.507-5.777.8" transform="translate(30.324 -83.96)"></path><path id="Trac&#xE9;_49" data-name="Trac&#xE9; 49" class="cls-45" d="M449.7,316.316c-35.046,82.262-88.274,137.236-158.2,163.4q7.912,14.3,16.3,27.44l6.849-2.381c-.244-.375-.49-.745-.736-1.121,24.68-10.187,90.238-37.244,143.336-118.677q-8.928-6.055-18.006-12.328c12.463-21.568,15.057-26.059,24.917-49.025l-14.457-7.31" transform="translate(-42.86 25.373)"></path><path id="Trac&#xE9;_50" data-name="Trac&#xE9; 50" class="cls-14" d="M449.424,361.02C432.665,385.154,388.155,449.27,306.088,479.7c.246.377.492.747.736,1.122C331.6,470.631,397.4,443.566,450.769,361.93c-.45-.3-.9-.6-1.346-.91" transform="translate(-35.038 49.332)"></path><path id="Trac&#xE9;_51" data-name="Trac&#xE9; 51" class="cls-46" d="M412.6,321.075c-11.8,26.648-12.263,27.689-24.917,49.025q9.07,6.274,18.006,12.328c15.415-25.608,16.338-27.142,27.149-51.128L412.6,321.075" transform="translate(8.695 27.924)"></path><path id="Trac&#xE9;_52" data-name="Trac&#xE9; 52" class="cls-47" d="M426.557,327.732c-12.942,27.855-13.447,28.941-27.149,51.128.449.306.9.608,1.346.911,15.5-25.68,16.43-27.219,27.314-51.277-.5-.255-1-.51-1.51-.762" transform="translate(14.978 31.492)"></path><path id="Trac&#xE9;_53" data-name="Trac&#xE9; 53" class="cls-48" d="M360.872,129.625c19.886,15.224,72.708,55.663,86.257,148.315.08.006.155.009.232.014-3.958-21.906-5.026-27.793-13.38-52.421,11.88-1.261,23.572-2.193,35.011-2.792-9.571-24.629-27.375-70.474-76.74-107.933q-15.552,6.453-31.38,14.818" transform="translate(-5.676 -82.63)"></path><path id="Trac&#xE9;_54" data-name="Trac&#xE9; 54" class="cls-48" d="M166.916,215.689" transform="translate(-109.63 -28.56)"></path><path id="Trac&#xE9;_55" data-name="Trac&#xE9; 55" class="cls-49" d="M408.47,187.87c8.515,25.417,8.681,25.9,13.38,52.421,11.741.593,23.284,1.391,34.565,2.4-4.535-29.9-4.625-30.469-12.934-57.61-11.438.6-23.13,1.531-35.011,2.793" transform="translate(19.835 -44.967)"></path><path id="Trac&#xE9;_56" data-name="Trac&#xE9; 56" class="cls-50" d="M644.306,418.282c-30.033,36.7-47.636,54.811-86.639,83.368q-6.684-2.4-14.044-5.888C409.5,583.221,303.856,560,238.844,525.116l12.778,6.68c14.919,6.662,35.169,14.767,50.573,20.214,26.363,6.824,66.209,17.139,124.7,8-.509-.145-1.02-.289-1.53-.441,61.778-12.7,142.9-40.061,222.479-139.8q-1.727-.71-3.539-1.485" transform="translate(-71.079 80.024)"></path><path id="Trac&#xE9;_57" data-name="Trac&#xE9; 57" class="cls-51" d="M523.963,414.123c-26.026,31.982-42.885,51.643-86.691,83.869q7.357,3.5,14.043,5.888c32.01-24.049,51.814-39.779,86.64-83.368q-6.444-2.76-13.992-6.389" transform="translate(35.272 77.795)"></path><path id="Trac&#xE9;_58" data-name="Trac&#xE9; 58" class="cls-52" d="M582.759,419.249c-44.113,53.863-109.266,118.431-222.479,139.8.51.152,1.022.3,1.53.441,61.746-12.7,142.819-40.049,222.332-139.682-.456-.184-.919-.372-1.382-.564" transform="translate(-5.993 80.542)"></path><path id="Trac&#xE9;_59" data-name="Trac&#xE9; 59" class="cls-53" d="M559.692,436.92c-10.406,9.378-24.585,21.567-35.553,30.283q-7.009-4.391-14.266-9.449c-23.886,16.916-38.3,27.128-71.157,41.841q-4.424-3.541-8.853-7.4c-50.548,19.808-89.7,28.94-151.756,20.5q3.318,3.769,6.792,7.231l-14.5-2.972a129.824,129.824,0,0,0,10.512,9.558c-12.382-3.611-28.729-9.019-40.737-13.719.174.15.35.3.527.442l21.206,8.153q3.078,2.5,6.291,4.773c36.679,10.256,113,31.593,221.4-23.7q-1.06-.629-2.127-1.277c38.395-22.244,47.508-28.87,81.235-59.09q-4.433-2.463-9.016-5.169" transform="translate(-70.367 90.013)"></path><path id="Trac&#xE9;_60" data-name="Trac&#xE9; 60" class="cls-54" d="M489.888,435.512l-7.473,7.331h0c-29.57,26.431-38.5,34.409-81.235,59.09q1.069.65,2.128,1.277c36.413-21.051,56.815-34.938,88.9-66.436q-1.152-.624-2.315-1.262" transform="translate(15.928 89.259)"></path><path id="Trac&#xE9;_61" data-name="Trac&#xE9; 61" class="cls-55" d="M455.6,432.156l-7.4,7.317q4.582,2.71,9.016,5.169l7.474-7.333q-4.468-2.461-9.091-5.153" transform="translate(41.128 87.46)"></path><path id="Trac&#xE9;_62" data-name="Trac&#xE9; 62" class="cls-56" d="M461.542,435.51l-7.474,7.334h0l7.472-7.332v0" transform="translate(44.275 89.258)"></path><path id="Trac&#xE9;_63" data-name="Trac&#xE9; 63" class="cls-57" d="M474.856,421.6c-30.95,30.252-57.045,53.61-111.184,78.809q4.425,3.861,8.853,7.4c28.194-13.421,41.061-19.547,71.158-41.843q-3.076-2.141-6.19-4.394c10.571-8.7,24.4-20.65,34.413-29.988q-1.014-.676-2.036-1.353L476.995,423c-.714-.462-1.423-.932-2.139-1.4" transform="translate(-4.176 81.8)"></path><path id="Trac&#xE9;_64" data-name="Trac&#xE9; 64" class="cls-58" d="M439.937,422.509l-7.125,7.231,2.037,1.353L442,423.855q-1.033-.668-2.065-1.344" transform="translate(32.882 82.289)"></path><path id="Trac&#xE9;_65" data-name="Trac&#xE9; 65" class="cls-59" d="M450.561,430.888c-10.182,9.317-24.059,21.428-34.8,30.1q7.247,5.048,14.265,9.451c10.917-8.783,25.2-20.847,35.553-30.283q-7.333-4.334-15.02-9.265" transform="translate(23.745 86.78)"></path><path id="Trac&#xE9;_66" data-name="Trac&#xE9; 66" class="cls-60" d="M445.656,426.155l-7.237,7.27q7.679,4.926,15.02,9.265l7.4-7.317q-7.4-4.315-15.182-9.217" transform="translate(35.887 84.243)"></path><path id="Trac&#xE9;_67" data-name="Trac&#xE9; 67" class="cls-23" d="M446.147,428.1c-10.07,9.281-23.791,21.345-34.413,29.988q3.114,2.255,6.188,4.4c10.69-8.732,24.669-20.723,34.8-30.1q-3.255-2.092-6.574-4.285" transform="translate(21.584 85.285)"></path><path id="Trac&#xE9;_68" data-name="Trac&#xE9; 68" class="cls-61" d="M441.291,423.385l-7.153,7.239q3.316,2.193,6.574,4.285l7.238-7.27q-3.3-2.079-6.659-4.255" transform="translate(33.593 82.759)"></path><path id="Trac&#xE9;_69" data-name="Trac&#xE9; 69" class="cls-62" d="M318.567,522.29c-33.452-7.24-84.005-18.189-136.089-77.106q-1.313-1.894-2.53-3.85c-7.136-9.1-16.317-21.51-22.725-31.139,7.119,10.6,16.825,24.594,24.588,34.727l7.07,8.486c29.19,31.03,43.777,43.006,84.178,62.571q-2.138-2.358-4.18-4.846c25.181,9.507,29.716,11.22,53.685,15.879q-2.032-2.3-4-4.719" transform="translate(-114.825 75.689)"></path><path id="Trac&#xE9;_70" data-name="Trac&#xE9; 70" class="cls-63" d="M283.6,491.79c-29.254-6.414-31.643-6.936-53.685-15.879q2.044,2.486,4.179,4.846c11.767,4.469,27.693,9.845,39.814,13.242.656.693,1.315,1.376,1.983,2.051l14.5,2.972q-3.474-3.458-6.792-7.231" transform="translate(-75.863 110.911)"></path><path id="Trac&#xE9;_71" data-name="Trac&#xE9; 71" class="cls-64" d="M425.209,453.08c-8.958,4.258-20.926,9.9-30.113,13.637q-5.859-6.56-11.64-13.658c-41.912,14.834-88.558,27.655-156.953,7.8q.841,1.742,1.713,3.448c23.821,6.456,29.483,7.987,56.255,10.254q3.82,6.322,7.887,12.182c30.836.407,73.071.965,135.865-30.6q-1.509-1.508-3.014-3.055" transform="translate(-77.694 98.664)"></path><path id="Trac&#xE9;_72" data-name="Trac&#xE9; 72" class="cls-65" d="M357.666,444.22c-8.617,4.23-20.135,9.842-28.978,13.576q5.776,7.089,11.64,13.658c9.105-3.924,21.241-9.2,30.113-13.636q-6.4-6.534-12.775-13.6" transform="translate(-22.925 93.926)"></path><path id="Trac&#xE9;_73" data-name="Trac&#xE9; 73" class="cls-66" d="M355.409,516.469c-30.308-1.639-45.521-2.464-78.6-12.85q2.251,1.59,4.569,3.061C250.8,494.9,249.6,494.44,224.116,478.973l15.327,9.482c35.691,18.63,65.62,31.981,126.011,34.073q-5.1-2.749-10.045-6.059" transform="translate(-78.973 112.551)"></path><path id="Trac&#xE9;_74" data-name="Trac&#xE9; 74" class="cls-67" d="M288.576,512.437l-21.4-8.236q-3.124-2.233-6.1-4.691c-23.716-11.811-36.782-18.318-58.928-37l19.233,15.208c23.746,15.8,35.665,23.72,67.194,34.716l0,0" transform="translate(-90.746 103.731)"></path><path id="Trac&#xE9;_75" data-name="Trac&#xE9; 75" class="cls-68" d="M261.722,494.754,240.516,486.6q2.975,2.455,6.1,4.691l21.4,8.236q-3.214-2.267-6.291-4.774" transform="translate(-70.183 116.641)"></path><path id="Trac&#xE9;_76" data-name="Trac&#xE9; 76" class="cls-69" d="M281.867,507.132c-26.741-10.3-40.164-15.477-67.194-34.716l14.5,10.07c27.933,16.538,29.022,17.185,57.262,27.706q-2.32-1.472-4.573-3.059" transform="translate(-84.034 109.038)"></path><path id="Trac&#xE9;_77" data-name="Trac&#xE9; 77" class="cls-70" d="M322.666,500.766c-26.571-2.878-32.1-3.478-57.849-11.1q-3.3-5.46-6.293-11.337c-7.067-2.684-16.556-6.11-23.447-9.219q3.3,6.951,7.11,13.318c-24.35-13.106-43.583-23.457-72.232-55.542q1.5,2.814,3.17,5.5c23.251,24.748,58.387,62.147,134.686,75.946q1.935,2.563,3.932,5.011l22.6,2.68q-6.059-7.154-11.678-15.258" transform="translate(-108.002 84.636)"></path><path id="Trac&#xE9;_78" data-name="Trac&#xE9; 78" class="cls-71" d="M306.705,506.414c-33.1-7.061-83.128-17.734-134.686-75.946q1.219,1.96,2.53,3.851c23.488,25.053,58.987,62.916,136.088,77.106q-2-2.447-3.932-5.011" transform="translate(-106.896 86.555)"></path><path id="Trac&#xE9;_79" data-name="Trac&#xE9; 79" class="cls-72" d="M283.873,470.633c-30.014-2.958-31.185-3.076-56.255-10.254q2.988,5.87,6.293,11.337c28.591,8.021,30.3,8.5,57.849,11.1q-4.064-5.855-7.887-12.182" transform="translate(-77.096 102.586)"></path><path id="Trac&#xE9;_80" data-name="Trac&#xE9; 80" class="cls-73" d="M273.43,497.806c-23.574-8.221-26.6-9.276-43.725-18.713q-2.315-5.988-4.226-12.352C195.675,448,168.818,428.3,141.948,376.834a78.349,78.349,0,0,0,1.911,8.383c33.269,61.183,68.388,91.7,129.575,112.594l0-.006" transform="translate(-123.012 57.809)"></path><path id="Trac&#xE9;_81" data-name="Trac&#xE9; 81" class="cls-74" d="M451.8,422.414c-21.179,14.667-41.184,28.521-75.494,40.494q-4.684-6.522-9.265-13.415c-23.976,7.578-96.947,30.64-171.364-10.624.324,1.155.657,2.306,1,3.444C218,452.939,220.736,454.3,238.993,459.817q2.645,6.99,5.639,13.559c37.574,9.064,83.308,16.539,150.694-9.7q-2.267-2.889-4.522-5.852c21.5-9.9,35.705-16.443,61.315-35.091l-.315-.316" transform="translate(-94.214 82.238)"></path><path id="Trac&#xE9;_82" data-name="Trac&#xE9; 82" class="cls-75" d="M379.505,413.921c-23.755,16.97-41.615,28.93-72.258,40.122q4.583,6.885,9.265,13.415c22.9-8.986,44.528-17.475,75.495-40.495q-6.241-6.354-12.5-13.043" transform="translate(-34.417 77.686)"></path><path id="Trac&#xE9;_83" data-name="Trac&#xE9; 83" class="cls-76" d="M384.031,422.619c-22.258,15.4-33.426,23.132-61.315,35.091q2.253,2.963,4.522,5.852c24.2-10.973,36.35-16.481,62.459-35.251q-2.832-2.813-5.666-5.692" transform="translate(-26.126 82.349)"></path><path id="Trac&#xE9;_84" data-name="Trac&#xE9; 84" class="cls-77" d="M238.643,452.874c-24.264-8.119-25.717-8.606-42.311-17.506q1.912,6.357,4.226,12.352c23.448,12.033,24.852,12.753,43.724,18.713q-3-6.569-5.639-13.559" transform="translate(-93.864 89.182)"></path><path id="Trac&#xE9;_85" data-name="Trac&#xE9; 85" class="cls-78" d="M251.951,499.3c-58.872-30.818-90.4-67.392-116.339-134.941l2.189,6.259c5.387,13.37,13.129,30.98,19.435,43.943,13.306,22.82,15.7,26.935,31.127,45.847a100.89,100.89,0,0,1-4.989-10.884c20.914,21.922,36.066,36.435,70.111,53.108q-.781-1.652-1.533-3.332" transform="translate(-126.409 51.12)"></path><path id="Trac&#xE9;_86" data-name="Trac&#xE9; 86" class="cls-79" d="M236.818,472.909c-23.613-12.44-42.264-22.262-70.111-53.108a101.037,101.037,0,0,0,4.989,10.884c19.336,20.5,34.607,36.69,72.232,55.542q-3.815-6.363-7.11-13.318" transform="translate(-109.742 80.838)"></path><path id="Trac&#xE9;_87" data-name="Trac&#xE9; 87" class="cls-80" d="M261.964,500.737c-27.646-13.7-47.62-23.606-80.646-58.455,8.807,9.024,20.694,20.937,30.042,29.4l.329.284c21.754,17.077,32.672,25.649,60.029,37.946a115.06,115.06,0,0,1-9.753-9.176" transform="translate(-101.911 92.887)"></path><path id="Trac&#xE9;_88" data-name="Trac&#xE9; 88" class="cls-81" d="M273.8,493.675c-12.15-3.5-28.194-8.756-39.978-13.336a115.175,115.175,0,0,0,9.753,9.176c12.036,4.625,28.334,10.189,40.737,13.719a129.718,129.718,0,0,1-10.512-9.559" transform="translate(-73.77 113.284)"></path><path id="Trac&#xE9;_89" data-name="Trac&#xE9; 89" class="cls-82" d="M262.012,500.9c-35.19-17.423-51.566-27.331-84.177-62.571l5.35,6.072c21.983,22.278,37.866,38.375,80.646,58.455-.613-.641-1.22-1.3-1.819-1.955" transform="translate(-103.778 90.769)"></path><path id="Trac&#xE9;_90" data-name="Trac&#xE9; 90" class="cls-83" d="M272.453,492.308c-12.1-3.474-28.078-8.7-39.814-13.241.6.657,1.206,1.315,1.819,1.955,11.815,4.5,27.807,9.914,39.978,13.337q-1-1.011-1.983-2.05" transform="translate(-74.405 112.602)"></path><path id="Trac&#xE9;_91" data-name="Trac&#xE9; 91" class="cls-50" d="M301.98,515.769l-14.44-5.5c-10.789-4.975-25.092-11.827-35.481-17.588q2.615,1.09,5.314,2.049,2.795,1,5.637,1.851c-8.969-5.812-20.932-13.584-29.512-19.96q4.05,1.262,8.23,2.258c26.041,18.2,58.45,40.852,116.622,52.045-17.078-3.871-39.824-9.419-56.37-15.153" transform="translate(-73.944 111.291)"></path><path id="Trac&#xE9;_92" data-name="Trac&#xE9; 92" class="cls-62" d="M219.182,490.366c-9.4-9.933-21.769-23.367-30.538-33.867-16.607-22.824-32.294-44.386-47.561-86.96a72.643,72.643,0,0,0,9.532,9.035c11.586,28.9,13.675,34.1,27.585,58.357-.524-.441-1.034-.888-1.541-1.341,15.86,24.03,25.432,38.535,51.116,62.919l-8.592-8.144" transform="translate(-123.477 53.899)"></path><path id="Trac&#xE9;_93" data-name="Trac&#xE9; 93" class="cls-84" d="M255.777,494.04c-8.881-5.812-20.725-13.586-29.214-19.959q3,1.27,6.124,2.386,2.244.8,4.53,1.513c8.732,6.162,20.4,14.372,29.512,19.96q-2.841-.855-5.637-1.851-2.7-.963-5.315-2.049" transform="translate(-77.661 109.931)"></path><path id="Trac&#xE9;_94" data-name="Trac&#xE9; 94" class="cls-66" d="M257.795,494.17l-16.913-9.245q2.419,1.215,4.917,2.318c8.777,4.673,20.453,10.981,29.5,15.094l-17.507-8.167" transform="translate(-69.987 115.742)"></path><path id="Trac&#xE9;_95" data-name="Trac&#xE9; 95" class="cls-85" d="M266.419,506.038c-29.4-19.349-29.967-19.719-53.948-42.081q-2.253-1.152-4.416-2.391l-14.819-16.034q4.2,2.408,8.77,4.5c24.268,25.792,33.349,35.441,69.331,58.327q-2.5-1.1-4.918-2.318" transform="translate(-95.524 94.629)"></path><path id="Trac&#xE9;_96" data-name="Trac&#xE9; 96" class="cls-67" d="M241.16,488.322c-25.365-18.607-26.884-19.722-42.173-34.767q2.875,1.926,5.93,3.678c25.588,23.537,26.588,24.456,53.587,41.926.018.012.04.02.057.032l4.984,2.9L241.16,488.322" transform="translate(-92.441 98.929)"></path><path id="Trac&#xE9;_97" data-name="Trac&#xE9; 97" class="cls-86" d="M256.435,497.875c-29.219-19.279-29.776-19.646-53.587-41.926.019.012.038.02.055.032,25.591,23.538,26.589,24.456,53.589,41.925-.017-.012-.038-.019-.057-.032" transform="translate(-90.372 100.213)"></path><path id="Trac&#xE9;_98" data-name="Trac&#xE9; 98" class="cls-69" d="M242.757,486.165l-4.984-2.9q2.35,1.33,4.775,2.546l16.912,9.246-16.7-8.893" transform="translate(-71.653 114.854)"></path><path id="Trac&#xE9;_99" data-name="Trac&#xE9; 99" class="cls-87" d="M256.473,497.9c-28.655-18.9-29.773-19.64-53.589-41.926q2.166,1.237,4.416,2.391c25.763,23.617,26.771,24.543,53.948,42.081q-2.426-1.216-4.775-2.546" transform="translate(-90.353 100.224)"></path><path id="Trac&#xE9;_100" data-name="Trac&#xE9; 100" class="cls-78" d="M147.415,388.674l-3.118-6.386-2.918-6.316a64.794,64.794,0,0,0,5.874,9.852c13.922,28.209,14.756,29.9,26.374,47.176-8.3-13.027-19.131-30.594-26.211-44.325" transform="translate(-123.318 57.346)"></path><path id="Trac&#xE9;_101" data-name="Trac&#xE9; 101" class="cls-80" d="M256.953,508.3c-10.889-8.008-25.3-18.848-35.673-27.512-28.646-27.409-36.5-36.854-56.032-67.369a90.1,90.1,0,0,0,8.488,6.368c17.346,26.076,38.929,58.523,83.6,88.775l-.385-.262" transform="translate(-110.525 77.415)"></path><path id="Trac&#xE9;_102" data-name="Trac&#xE9; 102" class="cls-82" d="M215.36,475.462c-21.712-21.765-31.624-31.7-51.115-62.919.507.453,1.017.9,1.54,1.341,18.034,27.3,26.27,39.766,56.032,67.369l-6.457-5.791" transform="translate(-111.063 76.947)"></path><g id="Groupe_2" data-name="Groupe 2" transform="translate(0 317.622)"><path id="Trac&#xE9;_106" data-name="Trac&#xE9; 106" class="cls-73" d="M148.556,300.653c-6.287,24.163-7.095,27.266-8.78,46.743q3.689,5.255,7.913,10.383c-1.012,35.192.416,68.469,28.229,119.432a78.269,78.269,0,0,1-5.9-6.253c-32.328-61.685-38.146-107.844-21.467-170.311l0,.006" transform="translate(-124.34 -300.647)"></path><path id="Trac&#xE9;_107" data-name="Trac&#xE9; 107" class="cls-78" d="M140.693,317.083c-7.148,66.063,5.7,112.614,47.4,171.748l-3.983-5.3c-8.113-11.914-18.438-28.145-25.7-40.6-11.558-23.752-13.642-28.035-20.775-51.372a100.729,100.729,0,0,0,6.267,10.2c-6.578-29.574-10.206-50.239-5.119-87.8q.938,1.567,1.915,3.127" transform="translate(-125.996 -293.514)"></path><path id="Trac&#xE9;_108" data-name="Trac&#xE9; 108" class="cls-88" d="M141.2,318.6c-2.8,26.542-5.017,47.5,5.119,87.8a100.685,100.685,0,0,1-6.267-10.2c-6.273-27.471-11.233-49.169-5.964-90.922Q137.252,312,141.2,318.6" transform="translate(-128.417 -298.162)"></path><path id="Trac&#xE9;_111" data-name="Trac&#xE9; 111" class="cls-62" d="M132.4,338.433c3.021,13.342,7.305,31.09,11.151,44.217,9.726,26.5,18.914,51.53,45.795,87.9a72.59,72.59,0,0,1-2.2-12.949c-17.565-25.7-20.731-30.337-33.145-55.389.075.681.163,1.353.256,2.026-11.142-26.549-17.868-42.572-23.841-77.48l1.986,11.67" transform="translate(-129.195 -286.65)"></path><path id="Trac&#xE9;_113" data-name="Trac&#xE9; 113" class="cls-82" d="M130.838,329.759c6.006,30.15,8.746,43.914,23.841,77.481-.094-.673-.181-1.346-.257-2.026C141.77,375.036,136,361.26,129.62,321.171l1.218,8.588" transform="translate(-129.62 -289.647)"></path></g></g></svg>