<svg xmlns="http://www.w3.org/2000/svg" width="101.504" height="81.196" viewBox="0 0 101.504 81.196"><defs><style>      .cls-1, .cls-12, .cls-14, .cls-19, .cls-2, .cls-25, .cls-3, .cls-46, .cls-47, .cls-5, .cls-52, .cls-75 {        fill: #4ca4cb;      }      .cls-1 {        opacity: 0.706;      }      .cls-2 {        opacity: 0.714;      }      .cls-3, .cls-9 {        opacity: 0.918;      }      .cls-4 {        fill: #3fa793;        opacity: 0.741;      }      .cls-5, .cls-86 {        opacity: 0.925;      }      .cls-6 {        fill: #211184;        opacity: 0.847;      }      .cls-7 {        fill: #4189be;      }      .cls-21, .cls-49, .cls-7, .cls-83 {        opacity: 0.961;      }      .cls-11, .cls-15, .cls-33, .cls-34, .cls-35, .cls-49, .cls-8 {        fill: #191384;      }      .cls-17, .cls-8 {        opacity: 0.718;      }      .cls-9 {        fill: #264fa1;      }      .cls-10 {        fill: #366fb1;        opacity: 0.682;      }      .cls-11, .cls-57, .cls-71 {        opacity: 0.953;      }      .cls-12, .cls-33, .cls-58, .cls-87 {        opacity: 0.988;      }      .cls-13 {        fill: #1c3a97;      }      .cls-13, .cls-37 {        opacity: 0.973;      }      .cls-14, .cls-16, .cls-23, .cls-27 {        opacity: 0.992;      }      .cls-15, .cls-18, .cls-32, .cls-51, .cls-52, .cls-56, .cls-77 {        opacity: 0.976;      }      .cls-16 {        fill: #21449c;      }      .cls-17 {        fill: #193494;      }      .cls-18, .cls-31 {        fill: #1a3795;      }      .cls-19, .cls-43 {        opacity: 0.627;      }      .cls-20, .cls-76 {        fill: #35a356;      }      .cls-20 {        opacity: 0.855;      }      .cls-21 {        fill: #3ea686;      }      .cls-22, .cls-23, .cls-45, .cls-50, .cls-53, .cls-55, .cls-57, .cls-59, .cls-60, .cls-61, .cls-72 {        fill: #35a242;      }      .cls-22, .cls-79, .cls-88 {        opacity: 0.957;      }      .cls-24 {        fill: #4696c4;        opacity: 0.765;      }      .cls-25, .cls-55 {        opacity: 0.914;      }      .cls-26, .cls-27 {        fill: #21459c;      }      .cls-26 {        opacity: 0.663;      }      .cls-28 {        fill: #346caf;      }      .cls-28, .cls-50 {        opacity: 0.922;      }      .cls-29, .cls-36 {        fill: #1a1d89;      }      .cls-29 {        opacity: 0.694;      }      .cls-30 {        fill: #2751a2;        opacity: 0.929;      }      .cls-31 {        opacity: 0.898;      }      .cls-32 {        fill: #2d5ca8;      }      .cls-35, .cls-39, .cls-42, .cls-61, .cls-75 {        opacity: 0.996;      }      .cls-37 {        fill: #881385;      }      .cls-38 {        fill: #193595;        opacity: 0.808;      }      .cls-39 {        fill: #1e3d98;      }      .cls-40 {        fill: #23499e;      }      .cls-40, .cls-76 {        opacity: 0.933;      }      .cls-41 {        fill: #2852a3;      }      .cls-42 {        fill: #2f1284;      }      .cls-43 {        fill: #a91385;      }      .cls-44 {        fill: #5f1284;      }      .cls-44, .cls-69 {        opacity: 0.941;      }      .cls-45 {        opacity: 0.729;      }      .cls-46, .cls-65 {        opacity: 0.949;      }      .cls-48 {        fill: #5a1284;        opacity: 0.8;      }      .cls-51 {        fill: #3aa472;      }      .cls-53 {        opacity: 0.671;      }      .cls-54 {        fill: #3fa88e;        opacity: 0.906;      }      .cls-56 {        fill: #45a8bb;      }      .cls-58 {        fill: #35a244;      }      .cls-59 {        opacity: 0.945;      }      .cls-60, .cls-84 {        opacity: 0.984;      }      .cls-62 {        fill: #fc2d26;        opacity: 0.651;      }      .cls-63 {        fill: #b6de2a;      }      .cls-63, .cls-68, .cls-81 {        opacity: 0.886;      }      .cls-64 {        fill: #38a362;      }      .cls-64, .cls-70 {        opacity: 0.867;      }      .cls-65 {        fill: #49a5cc;      }      .cls-66, .cls-69, .cls-70, .cls-79, .cls-83, .cls-85, .cls-87 {        fill: #eff825;      }      .cls-66 {        opacity: 0.827;      }      .cls-67 {        fill: #f7134a;      }      .cls-67, .cls-80 {        opacity: 0.659;      }      .cls-68 {        fill: #eaf62e;      }      .cls-71 {        fill: #ffb814;      }      .cls-72 {        opacity: 0.98;      }      .cls-73 {        fill: #fc131b;        opacity: 0.863;      }      .cls-74 {        fill: #4eae3d;        opacity: 0.82;      }      .cls-77 {        fill: #feaf21;      }      .cls-78 {        fill: #fe5b13;        opacity: 0.675;      }      .cls-80 {        fill: #fe8a13;      }      .cls-81 {        fill: #c9e624;      }      .cls-82 {        fill: #fe3a12;        opacity: 0.882;      }      .cls-84 {        fill: #67ba39;      }      .cls-85 {        opacity: 0.965;      }      .cls-86 {        fill: #f8eb18;      }      .cls-88 {        fill: #66bd6b;      }      .cls-89 {        fill: #0a114d;      }    </style></defs><g id="Groupe_5" data-name="Groupe 5" transform="translate(-27.68 -90.683)"><g id="Groupe_3" data-name="Groupe 3" transform="matrix(0.998, -0.07, 0.07, 0.998, 44.475, 94.809)"><path id="Trac&#xE9;_1" data-name="Trac&#xE9; 1" class="cls-1" d="M451.173,155.53c2.264,4.3,8.276,15.736,2.123,34.484h0a51.72,51.72,0,0,1-12.327,19.4,47.326,47.326,0,0,1-5.709,4.743l.017.009c.122.06.242.119.361.175a49.047,49.047,0,0,0,10.6-10.254q.923.444,1.711.781a49.834,49.834,0,0,0,8.882-18.657c-.128-.081-.26-.162-.4-.244.935-4.637,3.125-15.495-2.252-26.774q.212.192.41.392l-1.218-2.292a11.419,11.419,0,0,0-2.2-1.766" transform="translate(-377.864 -143.949)"></path><path id="Trac&#xE9;_2" data-name="Trac&#xE9; 2" class="cls-2" d="M424.912,334.4a50.512,50.512,0,0,1-11.763,18.987l.283.154a46.231,46.231,0,0,1-10.868,8.122q.668.4,1.323.727a45.914,45.914,0,0,0,10.525-7.693,51.376,51.376,0,0,0,12.327-19.4c-.171-.086-.346-.174-.525-.263q-.625-.31-1.3-.631" transform="translate(-351.308 -289.23)"></path><path id="Trac&#xE9;_3" data-name="Trac&#xE9; 3" class="cls-3" d="M477.986,339.164a50.313,50.313,0,0,1-12.327,19.4,50.688,50.688,0,0,0,12.327-19.4h0" transform="translate(-402.555 -293.098)"></path><path id="Trac&#xE9;_4" data-name="Trac&#xE9; 4" class="cls-4" d="M466.3,203.609a44.166,44.166,0,0,1,.488,14.9q-.735-.3-1.522-.6l-.441,2.723q-.978-.39-2.029-.776a51.479,51.479,0,0,1-3.218,10.55l1.234.585c-.664,1.387-1.564,3.231-2.3,4.582q1.053.547,2.035,1.048a49.371,49.371,0,0,1-7.535,9.911q.565.33,1.112.63a51.04,51.04,0,0,0,11.762-18.988h0a53.289,53.289,0,0,0,2.38-10.633h0a43.315,43.315,0,0,0-.626-13.4q-.647-.277-1.342-.525" transform="translate(-392.284 -182.999)"></path><path id="Trac&#xE9;_5" data-name="Trac&#xE9; 5" class="cls-5" d="M470.7,334.4c-2.8,7.361-5.279,12.079-11.762,18.988h0A49.845,49.845,0,0,0,470.7,334.4h0" transform="translate(-397.092 -289.227)"></path><path id="Trac&#xE9;_6" data-name="Trac&#xE9; 6" class="cls-6" d="M431.8,111.435c.981,1.052,2.243,2.5,3.135,3.63,1.041-.067,2.055-.084,3.035-.048,2.309,3.542,6.606,10.134,6.445,22.437q-.94-.256-1.924-.5a43.063,43.063,0,0,1-.62,6.586q1.936.631,3.7,1.277l.416-2.688q-.549-.188-1.117-.374c.41-4.794,1.173-13.719-4.308-23.845a24.777,24.777,0,0,1,3.345.539,34.5,34.5,0,0,0-5.059-6.857,22,22,0,0,0-7.043-.159" transform="translate(-375.055 -107.967)"></path><path id="Trac&#xE9;_7" data-name="Trac&#xE9; 7" class="cls-7" d="M505.523,275.787l-.416,2.688q1.05.386,2.029.776l.441-2.723q-.989-.376-2.054-.742" transform="translate(-434.595 -241.623)"></path><path id="Trac&#xE9;_8" data-name="Trac&#xE9; 8" class="cls-8" d="M538.194,177.139c1.506,3.5,5.505,12.792,2.239,26.627a13.032,13.032,0,0,1,1.734,1.272c.891-4.439,2.977-14.834-2.225-25.472a9.366,9.366,0,0,0-1.749-2.427" transform="translate(-461.469 -161.5)"></path><path id="Trac&#xE9;_9" data-name="Trac&#xE9; 9" class="cls-9" d="M536.013,175.054c1.655,3.854,5.53,12.879,2.252,26.774q.2.123.4.244c.932-4.615,3.115-15.422-2.239-26.627q-.2-.2-.41-.392" transform="translate(-459.697 -159.806)"></path><path id="Trac&#xE9;_10" data-name="Trac&#xE9; 10" class="cls-10" d="M496.247,149.69a36.144,36.144,0,0,1,3.579,9.615q.821.237,1.588.51c-.271-1.057-.615-2.473-.936-3.517q-.644-.222-1.327-.413a34.586,34.586,0,0,0-2.63-6.129l-.274-.066" transform="translate(-427.399 -139.205)"></path><path id="Trac&#xE9;_11" data-name="Trac&#xE9; 11" class="cls-3" d="M515.306,200.891a42.938,42.938,0,0,1,.555,14.806q.786.3,1.522.6a42.825,42.825,0,0,0-.488-14.9q-.766-.273-1.588-.51" transform="translate(-442.879 -180.791)"></path><path id="Trac&#xE9;_12" data-name="Trac&#xE9; 12" class="cls-11" d="M478.433,146.82c1.981,3.888,5.67,11.126,4.308,23.845q.568.185,1.117.374a42.051,42.051,0,0,0-.652-14.606q1.116.243,2.151.541a36.675,36.675,0,0,0-3.579-9.615,24.78,24.78,0,0,0-3.345-.539" transform="translate(-412.93 -136.874)"></path><path id="Trac&#xE9;_13" data-name="Trac&#xE9; 13" class="cls-12" d="M503.853,198.008a42.377,42.377,0,0,1,.652,14.606q1.064.366,2.054.742A42.6,42.6,0,0,0,506,198.549q-1.034-.3-2.151-.541" transform="translate(-433.576 -178.45)"></path><path id="Trac&#xE9;_14" data-name="Trac&#xE9; 14" class="cls-13" d="M489.861,123.009a33.844,33.844,0,0,1,7.709,15.661h0a43,43,0,0,1,.626,13.4q.607.273,1.17.552.25.124.489.248c.623-8.219.252-18.936-8.212-28.944q-.506-.313-1.057-.586-.356-.177-.725-.334" transform="translate(-422.212 -117.535)"></path><path id="Trac&#xE9;_15" data-name="Trac&#xE9; 15" class="cls-14" d="M530.911,206.4a42.971,42.971,0,0,1,.626,13.4h0a42.916,42.916,0,0,0-.626-13.4h0" transform="translate(-455.553 -185.27)"></path><path id="Trac&#xE9;_16" data-name="Trac&#xE9; 16" class="cls-15" d="M461.64,104.852a31.357,31.357,0,0,1,6.773,8.486q.687.172,1.337.384a36.011,36.011,0,0,1,2.62,6.158q.547.189,1.065.4a32.734,32.734,0,0,0-9.368-14.7,14.594,14.594,0,0,0-2.426-.732" transform="translate(-399.291 -102.787)"></path><path id="Trac&#xE9;_17" data-name="Trac&#xE9; 17" class="cls-16" d="M497.707,150.043a34.694,34.694,0,0,1,2.63,6.129q.683.191,1.327.413a34.647,34.647,0,0,0-2.62-6.158q-.65-.213-1.337-.384" transform="translate(-428.585 -139.492)"></path><path id="Trac&#xE9;_18" data-name="Trac&#xE9; 18" class="cls-17" d="M393.842,370.575a52.8,52.8,0,0,1-5.552,9.14l.169.069c-5.388,6.578-13.347,14.462-27.182,17.078q.4.112.795.192c14.582-3.014,25.236-11.536,32.572-26.054q-.37-.2-.8-.424" transform="translate(-317.774 -318.611)"></path><path id="Trac&#xE9;_19" data-name="Trac&#xE9; 19" class="cls-18" d="M330.592,307.037a42.881,42.881,0,0,1-5.209,11.067q-.6-.4-1.217-.818c-2.059,2.958-7.529,10.816-17.6,14.535l.128.193a33.429,33.429,0,0,0,8.834-4.905q.765.817,1.528,1.595a42.19,42.19,0,0,0,14.761-21.172l-1.227-.495" transform="translate(-273.338 -267.004)"></path><path id="Trac&#xE9;_20" data-name="Trac&#xE9; 20" class="cls-19" d="M346.549,322.673A42.209,42.209,0,0,1,332.6,341.442q.346.352.693.7a37.149,37.149,0,0,1-7.636,4.31q.284.36.569.711c1.072-.479,2.5-1.121,3.543-1.66q.779.863,1.562,1.663a43.347,43.347,0,0,0,6.771-4.505q-.469-.4-.942-.809a44.74,44.74,0,0,0,12.7-17.661q-1.614-.741-3.311-1.512" transform="translate(-288.846 -279.704)"></path><path id="Trac&#xE9;_21" data-name="Trac&#xE9; 21" class="cls-20" d="M382.42,342.781c-5.334,11.453-12.966,19.452-22.684,23.775q.37.339.739.661a42.753,42.753,0,0,0,13.593-9.635l.262.172a49.126,49.126,0,0,0,9.487-14.315l-1.4-.657" transform="translate(-316.523 -296.036)"></path><path id="Trac&#xE9;_22" data-name="Trac&#xE9; 22" class="cls-21" d="M446.938,346.281a48.8,48.8,0,0,1-9.487,14.315l.252.165a48.282,48.282,0,0,0,7.263-9.784l.906.472c.715-1.362,1.655-3.186,2.3-4.583l-1.234-.585" transform="translate(-379.644 -298.879)"></path><path id="Trac&#xE9;_23" data-name="Trac&#xE9; 23" class="cls-22" d="M450.486,373.8a48.723,48.723,0,0,1-7.356,9.832q.95.6,1.856,1.127a49.319,49.319,0,0,0,7.535-9.911q-.98-.5-2.035-1.048" transform="translate(-384.257 -321.228)"></path><path id="Trac&#xE9;_24" data-name="Trac&#xE9; 24" class="cls-23" d="M446.059,371.285a48.326,48.326,0,0,1-7.263,9.784q.41.266.814.52a48.682,48.682,0,0,0,7.356-9.832l-.907-.472" transform="translate(-380.736 -319.187)"></path><path id="Trac&#xE9;_25" data-name="Trac&#xE9; 25" class="cls-24" d="M408.857,299.631l-.666,2.478q-.8-.321-1.637-.645l-.635,2.02q-.647-.272-1.309-.547l-.927,2.534,1.276.587c-3,6.739-6.232,12.082-13.031,17.883q1.194,1.01,2.36,1.915c8.568-7.337,13.111-14.519,16.205-25.616q-.8-.3-1.635-.608" transform="translate(-342.669 -260.989)"></path><path id="Trac&#xE9;_26" data-name="Trac&#xE9; 26" class="cls-25" d="M399.608,330.724a44.976,44.976,0,0,1-12.7,17.661q.473.412.942.809a45.431,45.431,0,0,0,13.031-17.883l-1.276-.587" transform="translate(-338.595 -286.243)"></path><path id="Trac&#xE9;_27" data-name="Trac&#xE9; 27" class="cls-26" d="M440.794,222.7a38.4,38.4,0,0,1-.491,11.435q.646.2,1.283.4c-.317,1.354-.757,3.157-1.145,4.493q1.773.718,3.461,1.419l.611-1.987q-.863-.331-1.752-.664a42.2,42.2,0,0,0,1.37-14.727q-1.631-.213-3.337-.374" transform="translate(-381.96 -198.503)"></path><path id="Trac&#xE9;_28" data-name="Trac&#xE9; 28" class="cls-27" d="M435.593,283.591c-.3,1.327-.719,3.094-1.089,4.4l1.227.495c.37-1.341.847-3.134,1.145-4.493q-.636-.2-1.283-.4" transform="translate(-377.25 -247.961)"></path><path id="Trac&#xE9;_29" data-name="Trac&#xE9; 29" class="cls-28" d="M460.076,306.649l-.611,1.987q.662.276,1.309.547l.635-2.02q-.658-.256-1.333-.515" transform="translate(-397.524 -266.689)"></path><path id="Trac&#xE9;_30" data-name="Trac&#xE9; 30" class="cls-29" d="M474.351,246.048a44.253,44.253,0,0,1-1.152,9.463q.848.3,1.668.6l.629-3.067q-.836-.272-1.7-.541a41.449,41.449,0,0,0,.559-6.454h0" transform="translate(-408.679 -217.469)"></path><path id="Trac&#xE9;_31" data-name="Trac&#xE9; 31" class="cls-11" d="M476.921,246.048a41.462,41.462,0,0,1-.559,6.454q.866.269,1.7.541a41.892,41.892,0,0,0,.62-6.586q-.866-.211-1.764-.41" transform="translate(-411.248 -217.469)"></path><path id="Trac&#xE9;_32" data-name="Trac&#xE9; 32" class="cls-30" d="M470.454,296.438l-.635,2.432q.832.324,1.637.645l.666-2.478q-.819-.3-1.668-.6" transform="translate(-405.934 -258.396)"></path><path id="Trac&#xE9;_33" data-name="Trac&#xE9; 33" class="cls-31" d="M454.761,224.687a41.592,41.592,0,0,1-1.37,14.727q.888.334,1.752.664l.608-2.392q.688.237,1.359.475a44.026,44.026,0,0,0,1.152-9.463q-1.448-.32-2.974-.607c-.04-1.007-.074-2.351-.158-3.355l-.369-.049" transform="translate(-392.591 -200.119)"></path><path id="Trac&#xE9;_34" data-name="Trac&#xE9; 34" class="cls-32" d="M463.329,293.91l-.608,2.392q.675.259,1.333.515l.635-2.432q-.671-.237-1.359-.475" transform="translate(-400.169 -256.343)"></path><path id="Trac&#xE9;_35" data-name="Trac&#xE9; 35" class="cls-33" d="M428.661,133a32.88,32.88,0,0,1,6.383,17.087q1.547.208,3.018.464c-.184-1.624-.5-3.782-.8-5.388q-.74-.075-1.5-.132a33.858,33.858,0,0,0-5.576-12.253q-.755.095-1.526.222" transform="translate(-372.505 -125.465)"></path><path id="Trac&#xE9;_36" data-name="Trac&#xE9; 36" class="cls-34" d="M448.5,131.366a34.406,34.406,0,0,1,5.611,12.674q-.364-.042-.734-.079c.3,1.607.618,3.764.8,5.388q.911.158,1.789.334c.035,1.072.1,2.5.091,3.574q.984.241,1.924.5c-.049-4.658-.14-13.329-6.445-22.437-.98-.035-1.994-.018-3.035.048" transform="translate(-388.616 -124.269)"></path><g id="Groupe_1" data-name="Groupe 1" transform="translate(62.54 24.617)"><path id="Trac&#xE9;_37" data-name="Trac&#xE9; 37" class="cls-35" d="M462.652,224.948q1.547.208,3.017.464-1.469-.255-3.017-.464" transform="translate(-462.652 -224.948)"></path><path id="Trac&#xE9;_38" data-name="Trac&#xE9; 38" class="cls-35" d="M478.718,227.418c.042,1.049.119,2.448.116,3.5h0c-.027-1.05-.043-2.451-.116-3.5h0" transform="translate(-475.701 -226.954)"></path></g><path id="Trac&#xE9;_39" data-name="Trac&#xE9; 39" class="cls-34" d="M478.722,227.419c.043,1.049.119,2.448.116,3.5q.9.2,1.764.41c-.02-1.072-.025-2.5-.091-3.574q-.877-.176-1.789-.334" transform="translate(-413.165 -202.338)"></path><path id="Trac&#xE9;_40" data-name="Trac&#xE9; 40" class="cls-36" d="M462.652,224.948c.055,1.006.147,2.348.159,3.355q1.524.287,2.974.607c-.027-1.05-.043-2.451-.116-3.5q-1.469-.255-3.017-.464" transform="translate(-400.112 -200.331)"></path><path id="Trac&#xE9;_41" data-name="Trac&#xE9; 41" class="cls-37" d="M381.068,108.074a27.73,27.73,0,0,1,9.793,13.59l.252-.012c.318,1.066.735,2.489.991,3.571q1.457.039,2.863.127c-1.722-7.158-4.175-12.721-11.075-18.326q-1.4.454-2.826,1.049" transform="translate(-333.849 -104.552)"></path><path id="Trac&#xE9;_42" data-name="Trac&#xE9; 42" class="cls-38" d="M409.043,185a36.949,36.949,0,0,1,1.581,7.043c-1.379-.123-2.791-.22-4.226-.293a36.694,36.694,0,0,1-2.493,18.788l2.474,1.25a43.3,43.3,0,0,0,2.64-8.819q.764.232,1.515.466a38.688,38.688,0,0,0,.475-11.392l.221.021c-.158-1.06-.365-2.474-.577-3.524l-.252-.007c-.278-1.071-.654-2.5-.992-3.553l-.367.018" transform="translate(-352.398 -167.868)"></path><path id="Trac&#xE9;_43" data-name="Trac&#xE9; 43" class="cls-39" d="M406.078,280.772a43.461,43.461,0,0,1-2.64,8.819l.185.093a44.235,44.235,0,0,1-3.339,6.269q.612.414,1.217.818a42.778,42.778,0,0,0,5.209-11.067l-.2-.079c.35-1.31.8-3.062,1.08-4.388q-.751-.233-1.515-.466" transform="translate(-349.456 -245.672)"></path><path id="Trac&#xE9;_44" data-name="Trac&#xE9; 44" class="cls-40" d="M439.684,222.586a38.211,38.211,0,0,1-.475,11.392l.205.064a38.859,38.859,0,0,0,.491-11.435l-.221-.021" transform="translate(-381.072 -198.412)"></path><path id="Trac&#xE9;_45" data-name="Trac&#xE9; 45" class="cls-41" d="M434.539,283.251c-.3,1.322-.712,3.083-1.08,4.388l.2.079c.353-1.314.806-3.072,1.089-4.4l-.205-.064" transform="translate(-376.402 -247.685)"></path><path id="Trac&#xE9;_46" data-name="Trac&#xE9; 46" class="cls-42" d="M433.219,184.929c.318,1.06.735,2.477.992,3.553l.252.007c-.277-1.077-.653-2.512-.991-3.571l-.252.012" transform="translate(-376.207 -167.817)"></path><path id="Trac&#xE9;_47" data-name="Trac&#xE9; 47" class="cls-43" d="M397.927,94.347a28.124,28.124,0,0,1,7.3,6.819q.746-.094,1.475-.156c-.894-1.111-2.137-2.553-3.118-3.586q.355-.053.706-.1a27.128,27.128,0,0,0-4.317-3.468q-1.011.2-2.044.489" transform="translate(-347.542 -93.858)"></path><path id="Trac&#xE9;_48" data-name="Trac&#xE9; 48" class="cls-44" d="M428.04,112.422c.976,1.04,2.23,2.471,3.118,3.586q.364-.031.724-.054c-.9-1.124-2.148-2.583-3.135-3.63q-.352.044-.706.1" transform="translate(-372 -108.857)"></path><path id="Trac&#xE9;_49" data-name="Trac&#xE9; 49" class="cls-45" d="M310.837,316.316c-4.285,10.057-10.792,16.779-19.342,19.977q.967,1.748,1.993,3.355l.837-.291-.09-.137a36.543,36.543,0,0,0,17.524-14.509q-1.092-.74-2.2-1.507a41.785,41.785,0,0,0,3.046-5.994l-1.767-.894" transform="translate(-261.097 -274.541)"></path><path id="Trac&#xE9;_50" data-name="Trac&#xE9; 50" class="cls-14" d="M323.612,361.019c-2.049,2.951-7.491,10.79-17.524,14.509l.09.137a36.655,36.655,0,0,0,17.6-14.535l-.165-.111" transform="translate(-272.949 -310.849)"></path><path id="Trac&#xE9;_51" data-name="Trac&#xE9; 51" class="cls-46" d="M390.73,321.075a38.881,38.881,0,0,1-3.046,5.994q1.109.767,2.2,1.507a41.309,41.309,0,0,0,3.319-6.251l-2.474-1.25" transform="translate(-339.223 -278.406)"></path><path id="Trac&#xE9;_52" data-name="Trac&#xE9; 52" class="cls-47" d="M402.726,327.732a40.937,40.937,0,0,1-3.319,6.251l.165.111a41.483,41.483,0,0,0,3.339-6.269l-.185-.093" transform="translate(-348.744 -283.813)"></path><path id="Trac&#xE9;_53" data-name="Trac&#xE9; 53" class="cls-48" d="M360.872,116.619c2.431,1.861,8.889,6.805,10.546,18.133l.028,0a33.258,33.258,0,0,0-1.636-6.409c1.453-.154,2.882-.268,4.28-.341a28.178,28.178,0,0,0-9.382-13.2q-1.9.789-3.837,1.812" transform="translate(-317.446 -110.873)"></path><path id="Trac&#xE9;_54" data-name="Trac&#xE9; 54" class="cls-48" d="M166.916,215.689" transform="translate(-159.912 -192.811)"></path><path id="Trac&#xE9;_55" data-name="Trac&#xE9; 55" class="cls-49" d="M408.47,185.418a30.134,30.134,0,0,1,1.636,6.409c1.435.073,2.847.17,4.226.293a33.227,33.227,0,0,0-1.581-7.043c-1.4.073-2.828.187-4.28.341" transform="translate(-356.105 -167.947)"></path><path id="Trac&#xE9;_56" data-name="Trac&#xE9; 56" class="cls-50" d="M288.416,418.282a49.02,49.02,0,0,1-10.593,10.193q-.817-.294-1.717-.72c-16.4,10.693-29.314,7.853-37.262,3.589l1.562.817c1.824.814,4.3,1.805,6.183,2.471a34.6,34.6,0,0,0,15.246.978l-.187-.054c7.553-1.552,17.471-4.9,27.2-17.093q-.211-.087-.433-.182" transform="translate(-218.333 -357.359)"></path><path id="Trac&#xE9;_57" data-name="Trac&#xE9; 57" class="cls-51" d="M447.871,414.123a48.618,48.618,0,0,1-10.6,10.254q.9.427,1.717.72A48.4,48.4,0,0,0,449.582,414.9q-.788-.337-1.711-.781" transform="translate(-379.499 -353.981)"></path><path id="Trac&#xE9;_58" data-name="Trac&#xE9; 58" class="cls-52" d="M387.48,419.249c-5.393,6.585-13.359,14.479-27.2,17.092l.187.054c7.549-1.552,17.461-4.9,27.182-17.077l-.169-.069" transform="translate(-316.965 -358.144)"></path><path id="Trac&#xE9;_59" data-name="Trac&#xE9; 59" class="cls-53" d="M279.237,436.92c-1.272,1.147-3.006,2.637-4.347,3.7q-.857-.537-1.744-1.155a43.086,43.086,0,0,1-8.7,5.116q-.541-.433-1.082-.905c-6.18,2.422-10.967,3.538-18.554,2.506q.406.461.83.884l-1.773-.363a15.873,15.873,0,0,0,1.285,1.169c-1.514-.441-3.512-1.1-4.981-1.677l.064.054,2.593,1q.376.306.769.584c4.484,1.254,13.816,3.863,27.069-2.9l-.26-.156a44.926,44.926,0,0,0,9.932-7.224q-.542-.3-1.1-.632" transform="translate(-219.412 -372.497)"></path><path id="Trac&#xE9;_60" data-name="Trac&#xE9; 60" class="cls-54" d="M412.025,435.512l-.914.9h0a44.88,44.88,0,0,1-9.932,7.224l.26.156a46.02,46.02,0,0,0,10.868-8.122l-.283-.154" transform="translate(-350.183 -371.353)"></path><path id="Trac&#xE9;_61" data-name="Trac&#xE9; 61" class="cls-55" d="M449.1,432.156l-.9.895q.56.331,1.1.632l.914-.9q-.546-.3-1.112-.63" transform="translate(-388.372 -368.628)"></path><path id="Trac&#xE9;_62" data-name="Trac&#xE9; 62" class="cls-56" d="M454.981,435.51l-.914.9h0l.914-.9h0" transform="translate(-393.14 -371.352)"></path><path id="Trac&#xE9;_63" data-name="Trac&#xE9; 63" class="cls-57" d="M377.264,421.6a43.244,43.244,0,0,1-13.593,9.635q.541.472,1.082.905a41.563,41.563,0,0,0,8.7-5.116q-.376-.262-.757-.537c1.292-1.064,2.983-2.525,4.207-3.666l-.249-.165.871-.884-.262-.171" transform="translate(-319.719 -360.051)"></path><path id="Trac&#xE9;_64" data-name="Trac&#xE9; 64" class="cls-58" d="M433.683,422.509l-.871.884.249.165.875-.885-.252-.164" transform="translate(-375.876 -360.792)"></path><path id="Trac&#xE9;_65" data-name="Trac&#xE9; 65" class="cls-59" d="M420.017,430.888c-1.245,1.139-2.942,2.62-4.254,3.68q.886.617,1.744,1.155c1.335-1.074,3.081-2.549,4.347-3.7q-.9-.53-1.836-1.133" transform="translate(-362.029 -367.598)"></path><path id="Trac&#xE9;_66" data-name="Trac&#xE9; 66" class="cls-60" d="M439.3,426.155l-.885.889q.939.6,1.836,1.133l.9-.895q-.905-.528-1.856-1.127" transform="translate(-380.429 -363.754)"></path><path id="Trac&#xE9;_67" data-name="Trac&#xE9; 67" class="cls-23" d="M415.94,428.1c-1.231,1.135-2.909,2.61-4.207,3.666q.381.276.757.537c1.307-1.068,3.016-2.534,4.254-3.68q-.4-.256-.8-.524" transform="translate(-358.756 -365.332)"></path><path id="Trac&#xE9;_68" data-name="Trac&#xE9; 68" class="cls-61" d="M435.013,423.385l-.875.885q.405.268.8.524l.885-.889q-.4-.254-.814-.52" transform="translate(-376.953 -361.504)"></path><path id="Trac&#xE9;_69" data-name="Trac&#xE9; 69" class="cls-62" d="M176.95,423.9a27.641,27.641,0,0,1-16.638-9.427q-.161-.232-.309-.471c-.872-1.113-1.995-2.63-2.778-3.807.87,1.3,2.057,3.007,3.006,4.246l.864,1.038a28.573,28.573,0,0,0,10.292,7.65q-.261-.288-.511-.592a29.729,29.729,0,0,0,6.564,1.941q-.248-.282-.489-.577" transform="translate(-152.04 -350.791)"></path><path id="Trac&#xE9;_70" data-name="Trac&#xE9; 70" class="cls-63" d="M236.482,477.852a28.483,28.483,0,0,1-6.564-1.941q.25.3.511.592c1.439.546,3.386,1.2,4.868,1.619.08.085.161.168.242.251l1.773.363q-.425-.423-.83-.884" transform="translate(-211.083 -404.166)"></path><path id="Trac&#xE9;_71" data-name="Trac&#xE9; 71" class="cls-64" d="M250.8,453.062c-1.1.521-2.558,1.21-3.682,1.667q-.716-.8-1.423-1.67c-5.124,1.814-10.827,3.381-19.189.953q.1.213.209.422a28.74,28.74,0,0,0,6.878,1.254q.467.773.964,1.489a31.921,31.921,0,0,0,16.611-3.742q-.185-.184-.368-.374" transform="translate(-208.31 -385.605)"></path><path id="Trac&#xE9;_72" data-name="Trac&#xE9; 72" class="cls-65" d="M332.231,444.22c-1.053.517-2.462,1.2-3.543,1.66q.706.867,1.423,1.67c1.113-.48,2.6-1.125,3.682-1.667q-.782-.8-1.562-1.663" transform="translate(-291.305 -378.426)"></path><path id="Trac&#xE9;_73" data-name="Trac&#xE9; 73" class="cls-66" d="M240.168,483.556a31.724,31.724,0,0,1-9.61-1.571q.275.194.559.374a29.864,29.864,0,0,1-7-3.388l1.874,1.159A31.122,31.122,0,0,0,241.4,484.3q-.624-.336-1.228-.741" transform="translate(-206.371 -406.652)"></path><path id="Trac&#xE9;_74" data-name="Trac&#xE9; 74" class="cls-67" d="M212.717,468.618l-2.616-1.007q-.382-.273-.745-.574a29.8,29.8,0,0,1-7.2-4.523l2.351,1.859a29.862,29.862,0,0,0,8.215,4.244h0" transform="translate(-188.531 -393.286)"></path><path id="Trac&#xE9;_75" data-name="Trac&#xE9; 75" class="cls-68" d="M243.109,487.6l-2.593-1q.364.3.745.574l2.616,1.007q-.393-.277-.769-.584" transform="translate(-219.691 -412.848)"></path><path id="Trac&#xE9;_76" data-name="Trac&#xE9; 76" class="cls-69" d="M222.888,476.66a29.99,29.99,0,0,1-8.215-4.244l1.773,1.231a29.82,29.82,0,0,0,7,3.387q-.284-.18-.559-.374" transform="translate(-198.701 -401.327)"></path><path id="Trac&#xE9;_77" data-name="Trac&#xE9; 77" class="cls-70" d="M188.625,435.919a29.49,29.49,0,0,1-7.073-1.357q-.4-.668-.769-1.386c-.864-.328-2.024-.747-2.867-1.127q.4.85.869,1.628a27.113,27.113,0,0,1-8.831-6.791q.183.344.388.672a27.182,27.182,0,0,0,16.467,9.285q.237.313.481.613l2.763.328q-.741-.875-1.428-1.866" transform="translate(-162.381 -364.348)"></path><path id="Trac&#xE9;_78" data-name="Trac&#xE9; 78" class="cls-71" d="M188.486,439.753a27.236,27.236,0,0,1-16.467-9.285q.149.24.309.471a27.586,27.586,0,0,0,16.638,9.427q-.244-.3-.481-.613" transform="translate(-164.057 -367.257)"></path><path id="Trac&#xE9;_79" data-name="Trac&#xE9; 79" class="cls-72" d="M234.5,461.633a26.491,26.491,0,0,1-6.878-1.254q.365.718.769,1.386a27.689,27.689,0,0,0,7.073,1.357q-.5-.716-.964-1.489" transform="translate(-209.215 -391.551)"></path><path id="Trac&#xE9;_80" data-name="Trac&#xE9; 80" class="cls-73" d="M158.023,391.624a25.1,25.1,0,0,1-5.346-2.288q-.283-.732-.517-1.51a25.254,25.254,0,0,1-10.213-10.992,9.582,9.582,0,0,0,.234,1.025c4.067,7.48,8.361,11.211,15.842,13.766h0" transform="translate(-139.633 -323.694)"></path><path id="Trac&#xE9;_81" data-name="Trac&#xE9; 81" class="cls-74" d="M226.994,422.413a34.773,34.773,0,0,1-9.23,4.951q-.573-.8-1.133-1.64c-2.931.927-11.853,3.746-20.951-1.3.04.141.08.282.122.421a23.971,23.971,0,0,0,5.173,2.14q.323.855.689,1.658a27.988,27.988,0,0,0,18.424-1.186q-.277-.353-.553-.715a36.51,36.51,0,0,0,7.5-4.29l-.039-.039" transform="translate(-183.275 -360.714)"></path><path id="Trac&#xE9;_82" data-name="Trac&#xE9; 82" class="cls-75" d="M316.081,413.921a33.329,33.329,0,0,1-8.834,4.905q.56.842,1.133,1.64a34.663,34.663,0,0,0,9.23-4.951q-.763-.777-1.528-1.595" transform="translate(-273.891 -353.817)"></path><path id="Trac&#xE9;_83" data-name="Trac&#xE9; 83" class="cls-76" d="M330.212,422.619a35.25,35.25,0,0,1-7.5,4.29q.275.362.553.715a35.836,35.836,0,0,0,7.636-4.31q-.346-.344-.693-.7" transform="translate(-286.455 -360.882)"></path><path id="Trac&#xE9;_84" data-name="Trac&#xE9; 84" class="cls-77" d="M201.505,437.508a23.188,23.188,0,0,1-5.173-2.14q.234.777.517,1.51a24.193,24.193,0,0,0,5.346,2.288q-.366-.8-.689-1.658" transform="translate(-183.804 -371.236)"></path><path id="Trac&#xE9;_85" data-name="Trac&#xE9; 85" class="cls-78" d="M149.836,380.852c-7.2-3.768-11.053-8.239-14.224-16.5l.268.765c.659,1.635,1.605,3.788,2.376,5.372a31.783,31.783,0,0,0,3.806,5.605,12.338,12.338,0,0,1-.61-1.331,26.207,26.207,0,0,0,8.572,6.493q-.1-.2-.187-.407" transform="translate(-134.487 -313.558)"></path><path id="Trac&#xE9;_86" data-name="Trac&#xE9; 86" class="cls-79" d="M175.279,426.294a25.912,25.912,0,0,1-8.572-6.493,12.349,12.349,0,0,0,.61,1.331,27.132,27.132,0,0,0,8.831,6.791q-.466-.778-.869-1.628" transform="translate(-159.742 -358.593)"></path><path id="Trac&#xE9;_87" data-name="Trac&#xE9; 87" class="cls-80" d="M191.178,449.429a28.825,28.825,0,0,1-9.86-7.147c1.077,1.1,2.53,2.56,3.673,3.594l.04.035a29.364,29.364,0,0,0,7.339,4.639,14.076,14.076,0,0,1-1.192-1.122" transform="translate(-171.61 -376.852)"></path><path id="Trac&#xE9;_88" data-name="Trac&#xE9; 88" class="cls-81" d="M238.711,481.97c-1.485-.428-3.447-1.07-4.888-1.63a14.08,14.08,0,0,0,1.192,1.122c1.472.565,3.464,1.246,4.981,1.677a15.865,15.865,0,0,1-1.285-1.169" transform="translate(-214.255 -407.762)"></path><path id="Trac&#xE9;_89" data-name="Trac&#xE9; 89" class="cls-82" d="M188.127,445.979a28.567,28.567,0,0,1-10.292-7.65l.654.742a28.843,28.843,0,0,0,9.86,7.147c-.075-.078-.149-.159-.222-.239" transform="translate(-168.781 -373.641)"></path><path id="Trac&#xE9;_90" data-name="Trac&#xE9; 90" class="cls-83" d="M237.507,480.685c-1.479-.425-3.433-1.063-4.868-1.619.073.08.147.161.222.239,1.444.55,3.4,1.212,4.888,1.631q-.123-.124-.242-.251" transform="translate(-213.293 -406.728)"></path><path id="Trac&#xE9;_91" data-name="Trac&#xE9; 91" class="cls-50" d="M241.872,481.405l-1.765-.673c-1.319-.608-3.068-1.446-4.338-2.15q.32.133.65.25t.689.226c-1.1-.711-2.559-1.661-3.608-2.44q.5.154,1.006.276a33.741,33.741,0,0,0,14.258,6.363c-2.088-.473-4.869-1.152-6.892-1.853" transform="translate(-213.992 -404.741)"></path><path id="Trac&#xE9;_92" data-name="Trac&#xE9; 92" class="cls-62" d="M150.63,384.311c-1.15-1.214-2.662-2.857-3.734-4.141a37.239,37.239,0,0,1-5.815-10.632,8.883,8.883,0,0,0,1.165,1.1,41.592,41.592,0,0,0,3.372,7.135c-.064-.054-.126-.109-.188-.164a36.232,36.232,0,0,0,6.249,7.693l-1.05-1" transform="translate(-138.93 -317.769)"></path><path id="Trac&#xE9;_93" data-name="Trac&#xE9; 93" class="cls-84" d="M230.135,476.521c-1.086-.711-2.534-1.661-3.572-2.44q.366.155.749.292.274.1.554.185c1.068.753,2.494,1.757,3.608,2.44q-.347-.1-.689-.226t-.65-.25" transform="translate(-208.358 -402.68)"></path><path id="Trac&#xE9;_94" data-name="Trac&#xE9; 94" class="cls-66" d="M242.95,486.054l-2.068-1.13q.3.148.6.283c1.073.571,2.5,1.342,3.607,1.845l-2.14-1" transform="translate(-219.988 -411.486)"></path><path id="Trac&#xE9;_95" data-name="Trac&#xE9; 95" class="cls-85" d="M202.183,452.929a33.509,33.509,0,0,1-6.6-5.145q-.275-.141-.54-.292l-1.812-1.96q.514.294,1.072.55a34.367,34.367,0,0,0,8.476,7.131q-.306-.135-.6-.283" transform="translate(-181.29 -379.491)"></path><path id="Trac&#xE9;_96" data-name="Trac&#xE9; 96" class="cls-67" d="M204.143,457.806a32.71,32.71,0,0,1-5.156-4.251q.352.236.725.45a33.506,33.506,0,0,0,6.552,5.126l.007,0,.609.354-2.737-1.683" transform="translate(-185.961 -386.008)"></path><path id="Trac&#xE9;_97" data-name="Trac&#xE9; 97" class="cls-86" d="M209.4,461.075a33.233,33.233,0,0,1-6.552-5.126l.007,0a33.51,33.51,0,0,0,6.552,5.126l-.007,0" transform="translate(-189.097 -387.953)"></path><path id="Trac&#xE9;_98" data-name="Trac&#xE9; 98" class="cls-69" d="M238.382,483.62l-.609-.354q.287.163.584.311l2.068,1.13-2.042-1.087" transform="translate(-217.463 -410.14)"></path><path id="Trac&#xE9;_99" data-name="Trac&#xE9; 99" class="cls-87" d="M209.436,461.1a33.542,33.542,0,0,1-6.552-5.126q.265.151.54.292a33.787,33.787,0,0,0,6.6,5.145q-.3-.149-.584-.311" transform="translate(-189.126 -387.97)"></path><path id="Trac&#xE9;_100" data-name="Trac&#xE9; 100" class="cls-78" d="M142.117,377.524l-.381-.781-.357-.772a7.923,7.923,0,0,0,.718,1.2,35.127,35.127,0,0,0,3.225,5.768c-1.015-1.593-2.339-3.74-3.2-5.419" transform="translate(-139.171 -322.993)"></path><path id="Trac&#xE9;_101" data-name="Trac&#xE9; 101" class="cls-80" d="M176.459,425.015c-1.331-.979-3.093-2.3-4.361-3.364a34.97,34.97,0,0,1-6.851-8.237,11.017,11.017,0,0,0,1.038.779,35.347,35.347,0,0,0,10.221,10.854l-.047-.032" transform="translate(-158.557 -353.406)"></path><path id="Trac&#xE9;_102" data-name="Trac&#xE9; 102" class="cls-82" d="M170.493,420.235a34.919,34.919,0,0,1-6.249-7.693c.062.055.124.11.188.164a35.5,35.5,0,0,0,6.851,8.237l-.789-.708" transform="translate(-157.742 -352.697)"></path><g id="Groupe_2" data-name="Groupe 2" transform="translate(0 38.833)"><path id="Trac&#xE9;_106" data-name="Trac&#xE9; 106" class="cls-73" d="M140.582,300.648a25.1,25.1,0,0,0-1.073,5.715q.451.642.967,1.269a25.257,25.257,0,0,0,3.451,14.6,9.568,9.568,0,0,1-.721-.765c-3.952-7.542-4.664-13.185-2.625-20.822h0" transform="translate(-137.622 -300.647)"></path><path id="Trac&#xE9;_107" data-name="Trac&#xE9; 107" class="cls-78" d="M136.908,314.337c-.874,8.077.7,13.768,5.795,21l-.487-.648c-.992-1.457-2.254-3.441-3.142-4.963a31.772,31.772,0,0,1-2.54-6.281,12.313,12.313,0,0,0,.766,1.247,26.21,26.21,0,0,1-.626-10.735q.115.192.234.382" transform="translate(-135.111 -311.456)"></path><path id="Trac&#xE9;_108" data-name="Trac&#xE9; 108" class="cls-88" d="M133.006,306.912a25.912,25.912,0,0,0,.626,10.735,12.308,12.308,0,0,1-.766-1.247,27.13,27.13,0,0,1-.729-11.116q.387.821.869,1.628" transform="translate(-131.443 -304.413)"></path><path id="Trac&#xE9;_111" data-name="Trac&#xE9; 111" class="cls-62" d="M130.656,328.189c.369,1.631.893,3.8,1.363,5.406a37.24,37.24,0,0,0,5.6,10.747,8.875,8.875,0,0,1-.269-1.583,41.6,41.6,0,0,1-4.052-6.772c.009.083.02.165.031.248a36.24,36.24,0,0,1-2.915-9.473l.243,1.427" transform="translate(-130.264 -321.858)"></path><path id="Trac&#xE9;_113" data-name="Trac&#xE9; 113" class="cls-82" d="M129.769,322.221a34.931,34.931,0,0,0,2.915,9.473c-.011-.082-.022-.165-.031-.248a35.5,35.5,0,0,1-3.032-10.275l.149,1.05" transform="translate(-129.62 -317.317)"></path></g></g><path id="Trac&#xE9;_114" data-name="Trac&#xE9; 114" class="cls-89" d="M42.18,274.181H35.835L34.6,278.9H29.68l7.2-23.038h4.256L48.382,278.9H43.414ZM36.848,270.3h4.3L39,262.092Z" transform="translate(-2 -131.578)"></path><path id="Trac&#xE9;_115" data-name="Trac&#xE9; 115" class="cls-89" d="M183.3,255.858l4.351,16.661,4.335-16.661h6.076V278.9h-4.668v-6.234l.427-9.6-4.6,15.839h-3.165l-4.6-15.839.427,9.6V278.9H177.22V255.858Z" transform="translate(-121.834 -131.578)"></path><path id="Trac&#xE9;_116" data-name="Trac&#xE9; 116" class="cls-89" d="M315.642,269.5h-7.231v9.4h-4.652V255.858h12.753v3.877h-8.1v5.9h7.231Z" transform="translate(-224.61 -131.578)"></path><g id="Groupe_4" data-name="Groupe 4" transform="translate(46.115 124.171)"><path id="Trac&#xE9;_117" data-name="Trac&#xE9; 117" class="cls-89" d="M132.3,305.749h-4.441a32.072,32.072,0,0,0,3.059,13.56h4.46A32.939,32.939,0,0,1,132.3,305.749Z" transform="translate(-127.849 -296.271)"></path><path id="Trac&#xE9;_118" data-name="Trac&#xE9; 118" class="cls-89" d="M136.841,259.235a15.588,15.588,0,0,1,1.892-3.957h-4.46a12.439,12.439,0,0,0-1.9,3.957Z" transform="translate(-131.525 -255.278)"></path></g></g></svg>